<?xml version="1.0" encoding="utf-8"?>
<!-- Generator: Adobe Illustrator 21.0.2, SVG Export Plug-In . SVG Version: 6.00 Build 0)  -->
<svg version="1.1" id="Layer_1" xmlns="http://www.w3.org/2000/svg" xmlns:xlink="http://www.w3.org/1999/xlink" x="0px" y="0px"
	 viewBox="0 0 16 16" style="enable-background:new 0 0 16 16;" xml:space="preserve">
<style type="text/css">
	.st0{fill:none;stroke:#000000;stroke-width:1.4173;stroke-miterlimit:10;}
</style>
<circle class="st0" cx="8" cy="8" r="6.6"/>
<circle class="st0" cx="8" cy="8" r="2.1"/>
<path d="M5.7,8c0-1.2,1-2.3,2.3-2.3c0.3,0,0.6,0.1,0.9,0.2l1.8-4C9.9,1.6,9,1.4,8,1.4c-3.6,0-6.6,3-6.6,6.6c0,0.8,0.2,1.6,0.4,2.4
	l4-1.6C5.8,8.6,5.7,8.3,5.7,8z"/>
<path d="M14.1,5.6l-4,1.6c0.1,0.3,0.2,0.5,0.2,0.8c0,1.2-1,2.3-2.3,2.3c-0.3,0-0.6-0.1-0.9-0.2L5.3,14C6.1,14.4,7,14.6,8,14.6
	c3.6,0,6.6-2.9,6.6-6.6C14.6,7.2,14.4,6.4,14.1,5.6z"/>
</svg>
