<?xml version="1.0" encoding="utf-8"?>
<!-- Generator: Adobe Illustrator 21.0.2, SVG Export Plug-In . SVG Version: 6.00 Build 0)  -->
<svg version="1.1" id="Layer_1" xmlns="http://www.w3.org/2000/svg" xmlns:xlink="http://www.w3.org/1999/xlink" x="0px" y="0px"
	 viewBox="0 0 16 16" style="enable-background:new 0 0 16 16;" xml:space="preserve">
<style type="text/css">
	.st0{fill:none;stroke:#000000;stroke-width:0.5669;stroke-miterlimit:10;}
</style>
<g>
	<path d="M3.4,14.5c-0.1,0.1-0.3,0.1-0.4,0L1.5,13c-0.1-0.1-0.1-0.3,0-0.4l5.3-6.2c0.1-0.1,0.3-0.1,0.4,0l2.4,2.4
		c0.1,0.1,0.1,0.3,0,0.4L3.4,14.5z"/>
	<path class="st0" d="M3.4,14.5c-0.1,0.1-0.3,0.1-0.4,0L1.5,13c-0.1-0.1-0.1-0.3,0-0.4l5.3-6.2c0.1-0.1,0.3-0.1,0.4,0l2.4,2.4
		c0.1,0.1,0.1,0.3,0,0.4L3.4,14.5z"/>
</g>
<g>
	<path d="M11,8c0.1,0.1,0.3,0.2,0.5,0.2c0,0,1.5-0.3,2.1-1c1.3-1.3,1.3-3.5,0-4.9s-3.5-1.3-4.9,0C8,3,7.7,4.4,7.7,4.4
		c0,0.2,0,0.4,0.2,0.5L11,8z"/>
	<path class="st0" d="M11,8c0.1,0.1,0.3,0.2,0.5,0.2c0,0,1.5-0.3,2.1-1c1.3-1.3,1.3-3.5,0-4.9s-3.5-1.3-4.9,0C8,3,7.7,4.4,7.7,4.4
		c0,0.2,0,0.4,0.2,0.5L11,8z"/>
</g>
</svg>
