<?xml version="1.0" encoding="utf-8"?>
<svg version="1.1" xmlns="http://www.w3.org/2000/svg" xmlns:xlink="http://www.w3.org/1999/xlink" x="0px" y="0px"
	 viewBox="0 0 16 16" xml:space="preserve">
<path d="M15.1,0.5c-0.2-0.1-0.4-0.2-0.6-0.1L6,2.4C5.7,2.5,5.5,2.8,5.5,3.1v6.6C5,9.4,4.4,9.2,3.8,9.2c-1.7,0-3.1,1.4-3.1,3.1
	s1.4,3.1,3.1,3.1c1.7,0,3.1-1.4,3.1-3.1V3.7L14,2v5.7c-0.5-0.3-1.1-0.5-1.7-0.5c-1.7,0-3.1,1.4-3.1,3.1s1.4,3.1,3.1,3.1
	s3.1-1.4,3.1-3.1V1.1C15.4,0.9,15.3,0.7,15.1,0.5z"/>
</svg>
