<?xml version="1.0" encoding="utf-8"?>
<!-- Generator: Adobe Illustrator 21.0.2, SVG Export Plug-In . SVG Version: 6.00 Build 0)  -->
<svg version="1.1" id="Layer_1" xmlns="http://www.w3.org/2000/svg" xmlns:xlink="http://www.w3.org/1999/xlink" x="0px" y="0px"
	 viewBox="0 0 16 16" style="enable-background:new 0 0 16 16;" xml:space="preserve">
<path d="M8,0.8c-0.2,0-0.3,0.1-0.4,0.4l-2,4L1.2,5.8C0.8,5.9,0.7,6,0.7,6.2c0,0.1,0.1,0.3,0.2,0.4l3.2,3.1l-0.8,4.4
	c0,0.1,0,0.1,0,0.2c0,0.1,0,0.2,0.1,0.3s0.2,0.1,0.3,0.1s0.2,0,0.4-0.1l4-2.1l4,2.1c0.1,0.1,0.2,0.1,0.4,0.1c0.1,0,0.2,0,0.3-0.1
	s0.1-0.2,0.1-0.3s0-0.1,0-0.2l-0.8-4.4l3.2-3.1c0.2-0.2,0.2-0.3,0.2-0.4c0-0.2-0.2-0.4-0.5-0.4l-4.4-0.6l-2-4C8.3,0.9,8.2,0.8,8,0.8
	L8,0.8z"/>
</svg>
