<?xml version="1.0" encoding="utf-8"?>
<!-- Generator: Adobe Illustrator 16.0.0, SVG Export Plug-In . SVG Version: 6.00 Build 0)  -->
<!DOCTYPE svg PUBLIC "-//W3C//DTD SVG 1.1//EN" "http://www.w3.org/Graphics/SVG/1.1/DTD/svg11.dtd">
<svg version="1.1" id="Layer_1" xmlns="http://www.w3.org/2000/svg" xmlns:xlink="http://www.w3.org/1999/xlink" x="0px" y="0px"
	 width="16px" height="16px" viewBox="0 0 16 16" enable-background="new 0 0 16 16" xml:space="preserve">
<path id="soundcloud" d="M0.027,10.945c0,0.197,0.072,0.347,0.215,0.447c0.145,0.104,0.298,0.139,0.462,0.108
	c0.153-0.028,0.261-0.084,0.323-0.164c0.063-0.079,0.093-0.211,0.093-0.394V8.789c0-0.154-0.053-0.283-0.159-0.391
	c-0.107-0.107-0.237-0.16-0.391-0.16c-0.147,0-0.275,0.053-0.382,0.16C0.081,8.506,0.027,8.635,0.027,8.789V10.945L0.027,10.945z
	 M1.736,11.865c0,0.145,0.053,0.252,0.154,0.322c0.101,0.071,0.23,0.108,0.389,0.108c0.165,0,0.297-0.037,0.397-0.108
	c0.103-0.07,0.153-0.179,0.153-0.322V6.842c0-0.148-0.055-0.276-0.159-0.383C2.563,6.352,2.434,6.298,2.279,6.298
	c-0.148,0-0.275,0.054-0.383,0.161c-0.105,0.106-0.16,0.234-0.16,0.383V11.865z M3.438,12.104c0,0.145,0.054,0.252,0.156,0.324
	c0.105,0.071,0.238,0.107,0.402,0.107c0.157,0,0.288-0.036,0.391-0.107c0.101-0.072,0.151-0.181,0.151-0.324V7.518
	c0-0.153-0.054-0.285-0.16-0.394C4.271,7.016,4.145,6.96,3.997,6.96c-0.154,0-0.285,0.056-0.395,0.164
	c-0.108,0.108-0.164,0.24-0.164,0.394V12.104z M5.148,12.125c0,0.273,0.185,0.41,0.551,0.41c0.367,0,0.55-0.137,0.55-0.41V4.694
	c0-0.418-0.128-0.653-0.38-0.707C5.707,3.948,5.545,3.994,5.387,4.129C5.228,4.262,5.148,4.45,5.148,4.694V12.125z M6.888,12.342
	V4.256c0-0.259,0.077-0.412,0.23-0.461c0.333-0.08,0.663-0.12,0.989-0.12c0.758,0,1.463,0.179,2.118,0.535
	c0.654,0.357,1.185,0.845,1.588,1.462c0.401,0.615,0.638,1.295,0.701,2.039c0.303-0.129,0.625-0.193,0.969-0.193
	c0.69,0,1.285,0.246,1.777,0.735C15.754,8.744,16,9.334,16,10.021c0,0.693-0.246,1.287-0.739,1.776
	c-0.493,0.49-1.085,0.736-1.771,0.736l-6.468-0.009c-0.043-0.016-0.077-0.041-0.102-0.082C6.898,12.406,6.888,12.371,6.888,12.342
	L6.888,12.342z"/>
</svg>
