<?xml version="1.0" encoding="iso-8859-1"?>
<!-- Generator: Adobe Illustrator 18.0.0, SVG Export Plug-In . SVG Version: 6.00 Build 0)  -->
<!DOCTYPE svg PUBLIC "-//W3C//DTD SVG 1.1//EN" "http://www.w3.org/Graphics/SVG/1.1/DTD/svg11.dtd">
<svg version="1.1" id="Capa_1" xmlns="http://www.w3.org/2000/svg" xmlns:xlink="http://www.w3.org/1999/xlink" x="0px" y="0px"
	 viewBox="0 0 330.001 330.001" style="enable-background:new 0 0 330.001 330.001;" xml:space="preserve">
<g>
	<path d="M327.626,91.417L238.585,2.377c-3.169-3.169-8.307-3.168-11.475,0l-61.176,61.177l100.514,100.515l61.178-61.177
		C330.793,99.723,330.793,94.586,327.626,91.417z M218.539,91.508l-11.205-11.204c-0.373-0.373-0.373-0.979,0-1.351l15.215-15.215
		l-1.95-1.952c-0.376-0.375-0.375-0.98,0-1.353l14.759-14.759c0.372-0.374,0.977-0.375,1.353,0l13.832,13.832
		c0.373,0.375,0.371,0.977-0.002,1.35l-30.65,30.651C219.514,91.88,218.913,91.883,218.539,91.508z M284.327,94.645l-14.759,14.759
		c-0.372,0.373-0.976,0.374-1.353,0l-1.95-1.952l-15.216,15.215c-0.373,0.373-0.979,0.373-1.351-0.001l-11.206-11.203
		c-0.374-0.375-0.372-0.978,0.002-1.351l30.65-30.651c0.374-0.373,0.977-0.375,1.351-0.001l13.831,13.833
		C284.704,93.667,284.702,94.272,284.327,94.645z"/>
	<path d="M145.631,57.993c-3.49-3.489-9.148-3.49-12.639,0L26.809,164.176c-35.745,35.746-35.745,93.908,0,129.654l9.362,9.362
		c35.746,35.746,93.909,35.746,129.653,0L272.01,197.01c3.487-3.491,3.487-9.149,0-12.638L145.631,57.993z"/>
</g>
<g>
</g>
<g>
</g>
<g>
</g>
<g>
</g>
<g>
</g>
<g>
</g>
<g>
</g>
<g>
</g>
<g>
</g>
<g>
</g>
<g>
</g>
<g>
</g>
<g>
</g>
<g>
</g>
<g>
</g>
</svg>
