<?xml version="1.0" encoding="UTF-8" standalone="no"?>
<!-- Created with Inkscape (http://www.inkscape.org/) -->

<svg
   xmlns:dc="http://purl.org/dc/elements/1.1/"
   xmlns:cc="http://creativecommons.org/ns#"
   xmlns:rdf="http://www.w3.org/1999/02/22-rdf-syntax-ns#"
   xmlns:svg="http://www.w3.org/2000/svg"
   xmlns="http://www.w3.org/2000/svg"
   xmlns:sodipodi="http://sodipodi.sourceforge.net/DTD/sodipodi-0.dtd"
   xmlns:inkscape="http://www.inkscape.org/namespaces/inkscape"
   width="160"
   height="160"
   viewBox="0 0 45.155555 45.155554"
   version="1.1"
   id="svg4491"
   inkscape:version="0.91 r13725"
   sodipodi:docname="ais-ai.svg"
   inkscape:export-filename="C:\Users\Nojmek\Desktop\IconInt.png"
   inkscape:export-xdpi="96"
   inkscape:export-ydpi="96">
  <defs
     id="defs4485" />
  <sodipodi:namedview
     id="base"
     pagecolor="#ffffff"
     bordercolor="#666666"
     borderopacity="1.0"
     inkscape:pageopacity="0.0"
     inkscape:pageshadow="2"
     inkscape:zoom="4.4621338"
     inkscape:cx="44.818513"
     inkscape:cy="63.302355"
     inkscape:document-units="mm"
     inkscape:current-layer="layer1"
     showgrid="true"
     inkscape:pagecheckerboard="true"
     showguides="false"
     inkscape:window-width="1600"
     inkscape:window-height="824"
     inkscape:window-x="0"
     inkscape:window-y="24"
     inkscape:window-maximized="1"
     height="90mm"
     units="px">
    <inkscape:grid
       type="xygrid"
       id="grid5095" />
  </sodipodi:namedview>
  <metadata
     id="metadata4488">
    <rdf:RDF>
      <cc:Work
         rdf:about="">
        <dc:format>image/svg+xml</dc:format>
        <dc:type
           rdf:resource="http://purl.org/dc/dcmitype/StillImage" />
        <dc:title></dc:title>
      </cc:Work>
    </rdf:RDF>
  </metadata>
  <g
     inkscape:label="Layer 1"
     inkscape:groupmode="layer"
     id="layer1"
     transform="translate(0,-251.84445)">
    <path
       style="opacity:1;fill:#000000;fill-opacity:1;fill-rule:evenodd;stroke:#ffffff;stroke-width:0.0758544;stroke-linecap:butt;stroke-linejoin:miter;stroke-miterlimit:4;stroke-dasharray:0, 0.83439834000000002;stroke-dashoffset:7.55999994;stroke-opacity:1"
       d="m 34.845288,258.07159 c -0.836887,0 -1.2983,0.67857 -1.2983,1.48251 0,0.26359 9.7e-5,0.29011 0.07917,0.2967 l 1.021393,0.046 c 0.02636,0 0.05272,-0.0198 0.05272,-0.0527 0,-0.1977 0.07902,-0.38881 0.171279,-0.38881 0.06589,0 0.0923,0.0594 0.0923,0.15168 0,0.55353 -0.882976,1.02799 -1.370611,1.77921 -0.04613,0.0725 -0.06585,0.14482 -0.06585,0.19754 l 0,1.3179 c 0,0.0263 0.03282,0.0462 0.05918,0.0462 l 2.504103,0 c 0.04612,0 0.06584,-0.0198 0.06584,-0.0527 l 0,-1.25205 c 0,-0.033 -0.01976,-0.0594 -0.05272,-0.0594 l -1.219128,0 c -0.02636,0 -0.03939,-0.006 -0.03939,-0.0262 0,-0.0132 0.01308,-0.0331 0.02628,-0.0462 0.784169,-0.54695 1.331223,-0.9883 1.331223,-1.97675 0,-0.77758 -0.507414,-1.46292 -1.357484,-1.46292 z m -25.1911263,3.10592 c -0.08241,0 -0.153052,0.0824 -0.153052,0.15306 l 0,8.5235 c 0,0.0824 0.0587,0.15306 0.12934,0.15306 l 4.2147213,0 c 0.07064,0 0.129537,-0.0589 0.129537,-0.12954 l 0,-2.18976 c 0,-0.0589 -0.04713,-0.11778 -0.129537,-0.11778 l -2.036713,0 c -0.03532,0 -0.07055,-0.0352 -0.07055,-0.0823 l 0,-0.69471 c 0,-0.0589 0.03521,-0.0941 0.08231,-0.0941 l 0.953589,0 c 0.04709,0 0.09426,-0.0472 0.09426,-0.10602 l 0,-2.14253 c 0,-0.0471 -0.03541,-0.0825 -0.0825,-0.0825 l -0.929875,0 c -0.03532,0 -0.0825,-0.0354 -0.0825,-0.0825 l 0,-0.65924 c 0,-0.0471 0.03541,-0.0823 0.0825,-0.0823 l 1.965968,0 c 0.07064,0 0.129536,-0.0471 0.129536,-0.11778 l 0,-2.11902 c 0,-0.0706 -0.04714,-0.12954 -0.117778,-0.12954 z m 12.5534303,1.76589 c -0.05887,0 -0.10602,0.0472 -0.10602,0.0943 l 0,6.87521 c 0,0.0589 0.03541,0.0943 0.0825,0.0943 l 1.612831,0 c 0.05886,0 0.09426,-0.0354 0.09426,-0.0825 l 0,-4.82673 c 0,-0.17659 0.09414,-0.23556 0.188327,-0.23556 0.09418,0 0.188326,0.059 0.188326,0.23556 l 0,4.80322 c 0,0.0706 0.04716,0.10602 0.106021,0.10602 l 1.61283,0 c 0.07064,0 0.106019,-0.0471 0.106019,-0.11778 l 0,-4.7797 c 0,-0.17659 0.09415,-0.24732 0.188328,-0.24732 0.09418,0 0.188327,0.0707 0.188327,0.24732 l 0,4.76794 c 0,0.0706 0.04716,0.12954 0.106019,0.12954 l 1.577557,0 c 0.07064,0 0.105823,-0.0589 0.105823,-0.12954 l 0,-5.70978 c 0,-0.68282 -0.506227,-1.22441 -1.106641,-1.22441 -0.447367,0 -0.741663,0.23548 -0.965347,0.44739 -0.04709,0.0589 -0.105976,0.0941 -0.141294,0.0941 -0.03532,0 -0.08243,-0.0352 -0.141294,-0.11758 -0.188365,-0.24723 -0.470781,-0.42388 -0.894602,-0.42388 -0.37673,0 -0.694675,0.20021 -0.88304,0.41212 -0.05886,0.0706 -0.09422,0.0941 -0.129535,0.0941 -0.08241,0 -0.152936,-0.50619 -0.247119,-0.50619 z m 8.399851,0 c -1.24792,0 -1.95421,1.0007 -1.95421,2.03671 l 0,2.77846 c 0,1.36565 0.776987,2.24856 1.907177,2.24856 2.060243,0 2.060229,-1.90717 2.060229,-2.70772 0,-0.0706 -0.04713,-0.12952 -0.129535,-0.14129 l -1.565798,-0.0825 c -0.08241,0 -0.129537,0.0471 -0.129537,0.11778 l 0,0.75351 c 0,0.14127 -0.09416,0.23536 -0.176568,0.23536 -0.09418,0 -0.200085,-0.0941 -0.200085,-0.23536 l 0,-3.1316 c 0,-0.14127 0.105916,-0.23556 0.188327,-0.23556 0.09418,0 0.188326,0.0943 0.188326,0.23556 l 0,0.87109 c 0,0.0706 0.05888,0.15306 0.141294,0.14129 l 1.542283,-0.0823 c 0.141273,-0.0118 0.141293,-0.0824 0.141293,-0.64748 0,-1.07133 -0.765278,-2.15449 -2.013196,-2.15449 z m -14.778078,1.73061 0,1.25969 4.426564,0 0,-1.25969 z m 0,2.60169 0,1.25969 4.426564,0 0,-1.25969 z m -12.3439383,4.43323 c -1.909978,0 -3.44749954,1.79001 -3.44749954,4.01346 l 0,11.03702 c 0,2.22345 1.53752154,4.01346 3.44749954,4.01346 l 38.1847023,0 c 1.909976,0 3.4475,-1.79001 3.4475,-4.01346 l 0,-11.03702 c 0,-2.22345 -1.537524,-4.01346 -3.4475,-4.01346 z m 1.935201,1.935 11.9925643,0 0,15.26546 -11.9925643,0 c -1.909977,0 -3.447695,-1.79001 -3.447695,-4.01346 l 0,-7.23854 c 0,-2.22345 1.537718,-4.01346 3.447695,-4.01346 z m 13.5636543,0 6.436037,0 0,15.26546 -6.436037,0 z m 8.007128,0 12.958499,0 c 1.90998,0 3.447694,1.79001 3.447694,4.01346 l 0,7.23854 c 0,2.22345 -1.537714,4.01346 -3.447694,4.01346 l -12.958499,0 z m 8.482352,2.54839 a 4.8376532,4.9093213 0 0 0 -4.837708,4.90924 4.8376532,4.9093213 0 0 0 4.837708,4.90944 4.8376532,4.9093213 0 0 0 4.837711,-4.90944 4.8376532,4.9093213 0 0 0 -4.837711,-4.90924 z m -25.9397293,0.0317 a 4.8376532,4.9093209 0 0 0 -4.837709,4.90923 4.8376532,4.9093209 0 0 0 4.837709,4.90944 4.8376532,4.9093209 0 0 0 4.8377093,-4.90944 4.8376532,4.9093209 0 0 0 -4.8377093,-4.90923 z m 25.8435083,3.05007 a 1.8747241,1.8992269 0 0 1 1.874845,1.89915 1.8747241,1.8992269 0 0 1 -1.874845,1.89933 1.8747241,1.8992269 0 0 1 -1.874645,-1.89933 1.8747241,1.8992269 0 0 1 1.874645,-1.89915 z m -25.9397293,0.0317 a 1.8747241,1.8992269 0 0 1 1.8748433,1.89915 1.8747241,1.8992269 0 0 1 -1.8748433,1.89934 1.8747241,1.8992269 0 0 1 -1.874647,-1.89934 1.8747241,1.8992269 0 0 1 1.874647,-1.89915 z"
       id="rect5036"
       inkscape:connector-curvature="0" />
    <flowRoot
       xml:space="preserve"
       id="flowRoot3692"
       style="font-style:normal;font-variant:normal;font-weight:normal;font-stretch:normal;font-size:85.33333588px;line-height:125%;font-family:'Incised901 NdIt BT';-inkscape-font-specification:'Incised901 NdIt BT';letter-spacing:0px;word-spacing:0px;fill:#000000;fill-opacity:1;stroke:none;stroke-width:1px;stroke-linecap:butt;stroke-linejoin:miter;stroke-opacity:1;"
       transform="matrix(0.37922459,0,0,0.37922459,5.2538125,184.37029)"><flowRegion
         id="flowRegion3694"
         style="font-style:normal;font-variant:normal;font-weight:normal;font-stretch:normal;font-size:85.33333588px;font-family:'Incised901 NdIt BT';-inkscape-font-specification:'Incised901 NdIt BT'"><rect
           id="rect3696"
           width="380"
           height="100"
           x="220"
           y="382.51968"
           style="font-style:normal;font-variant:normal;font-weight:normal;font-stretch:normal;font-size:85.33333588px;font-family:'Incised901 NdIt BT';-inkscape-font-specification:'Incised901 NdIt BT';fill:#000000;fill-opacity:1;" /></flowRegion><flowPara
         id="flowPara3698" /></flowRoot>    <text
       xml:space="preserve"
       style="font-style:normal;font-weight:normal;font-size:4.01346016px;line-height:125%;font-family:sans-serif;letter-spacing:0px;word-spacing:0px;fill:#000000;fill-opacity:1;stroke:none;stroke-width:0.26458332px;stroke-linecap:butt;stroke-linejoin:miter;stroke-opacity:1;"
       x="31.341303"
       y="228.77116"
       id="text3702"
       sodipodi:linespacing="125%"><tspan
         sodipodi:role="line"
         id="tspan3700"
         x="31.341303"
         y="228.77116"
         style="fill:#000000;stroke-width:0.26458332px;fill-opacity:1;" /></text>
  </g>
</svg>
