<?xml version="1.0" encoding="UTF-8" standalone="no"?>
<!-- Created with Inkscape (http://www.inkscape.org/) -->

<svg
   xmlns:dc="http://purl.org/dc/elements/1.1/"
   xmlns:cc="http://creativecommons.org/ns#"
   xmlns:rdf="http://www.w3.org/1999/02/22-rdf-syntax-ns#"
   xmlns:svg="http://www.w3.org/2000/svg"
   xmlns="http://www.w3.org/2000/svg"
   xmlns:sodipodi="http://sodipodi.sourceforge.net/DTD/sodipodi-0.dtd"
   xmlns:inkscape="http://www.inkscape.org/namespaces/inkscape"
   width="160"
   height="160"
   viewBox="0 0 45.155555 45.155555"
   version="1.1"
   id="svg4491"
   inkscape:version="0.91 r13725"
   sodipodi:docname="design.svg"
   inkscape:export-filename="C:\Users\Nojmek\Desktop\ICONdesign2.png"
   inkscape:export-xdpi="96"
   inkscape:export-ydpi="96">
  <defs
     id="defs4485" />
  <sodipodi:namedview
     id="base"
     pagecolor="#ffffff"
     bordercolor="#666666"
     borderopacity="1.0"
     inkscape:pageopacity="0.0"
     inkscape:pageshadow="2"
     inkscape:zoom="2.5662475"
     inkscape:cx="158.29842"
     inkscape:cy="115.44175"
     inkscape:document-units="mm"
     inkscape:current-layer="layer1"
     showgrid="true"
     inkscape:pagecheckerboard="true"
     showguides="false"
     inkscape:window-width="1600"
     inkscape:window-height="824"
     inkscape:window-x="0"
     inkscape:window-y="24"
     inkscape:window-maximized="1"
     inkscape:measure-start="-190,240"
     inkscape:measure-end="240,0"
     width="140mm"
     units="px">
    <inkscape:grid
       type="xygrid"
       id="grid5095" />
  </sodipodi:namedview>
  <metadata
     id="metadata4488">
    <rdf:RDF>
      <cc:Work
         rdf:about="">
        <dc:format>image/svg+xml</dc:format>
        <dc:type
           rdf:resource="http://purl.org/dc/dcmitype/StillImage" />
        <dc:title></dc:title>
      </cc:Work>
    </rdf:RDF>
  </metadata>
  <g
     inkscape:label="Layer 1"
     inkscape:groupmode="layer"
     id="layer1"
     transform="translate(0,-251.84445)">
    <path
       style="opacity:1;fill:#000000;fill-opacity:1;fill-rule:evenodd;stroke:#ffffff;stroke-width:0.06817186;stroke-linecap:butt;stroke-linejoin:miter;stroke-miterlimit:4;stroke-dasharray:0, 0.74989046000000004;stroke-dashoffset:7.55999994;stroke-opacity:1"
       d="m 22.169792,259.56559 -1.211014,2.73887 -2.746973,0.46038 2.004619,2.10748 -0.448934,3.00305 2.449855,-1.43645 2.469582,1.39542 -0.4905,-2.99513 1.975207,-2.14041 -2.753137,-0.41477 -1.248705,-2.71844 z m 15.672561,4.47543 -1.469385,1.0791 -1.721768,-0.59846 0.57222,1.73075 -1.10129,1.45265 1.822862,-0.01 1.041409,1.49634 0.554256,-1.73657 1.744839,-0.52783 -1.480305,-1.06396 0.03716,-1.82251 z m -31.3333212,0.17648 0.038394,1.88133 -1.5282099,1.0983 1.8011989,0.54492 0.5722201,1.79257 1.074872,-1.54459 1.8816871,0.01 -1.1368679,-1.49968 0.5907137,-1.78658 -1.7774228,0.61784 -1.5165857,-1.11397 z m 12.2561472,7.89748 c -0.499566,0 -0.901744,0.40218 -0.901744,0.90175 l 0,15.32964 c 0,0.49957 0.402178,0.90175 0.901744,0.90175 l 7.213954,0 c 0.499566,0 0.901744,-0.40218 0.901744,-0.90175 l 0,-15.32964 c 0,-0.49957 -0.402178,-0.90175 -0.901744,-0.90175 l -7.213954,0 z m -15.1241165,0.26964 c -1.998265,0 -3.60697681,1.38181 -3.60697681,3.09834 l 0,13.011 1.38150031,0 c 0.034649,0.46747 0.4217875,0.83377 0.8983978,0.83377 l 3.6069768,0 c 0.4766104,0 0.8637489,-0.3663 0.898398,-0.83377 l 3.6136694,0 c 0.03465,0.46747 0.421788,0.83377 0.898397,0.83377 l 3.606977,0 c 0.476611,0 0.863749,-0.3663 0.898399,-0.83377 l 0.59899,0 0.73161,0 0,-13.011 c 0,-1.71653 -1.60871,-3.09834 -3.606977,-3.09834 l -9.9193615,0 z m 27.9542455,0 c -1.998264,0 -3.606976,1.38181 -3.606976,3.09834 l 0,13.011 1.381324,0 c 0.03465,0.46747 0.421788,0.83377 0.898398,0.83377 l 3.606976,0 c 0.476611,0 0.86375,-0.3663 0.898399,-0.83377 l 3.613669,0 c 0.03465,0.46747 0.421788,0.83377 0.898398,0.83377 l 3.606976,0 c 0.476611,0 0.86375,-0.3663 0.898399,-0.83377 l 0.59899,0 0.73161,0 0,-13.011 c 0,-1.71653 -1.608709,-3.09834 -3.606976,-3.09834 l -9.919187,0 z m -11.657861,1.08298 4.959593,0 c 0.499566,0 0.901744,0.40218 0.901744,0.90174 l 0,13.07529 c 0,0.49957 -0.402178,0.90174 -0.901744,0.90174 l -4.959593,0 c -0.499567,0 -0.901745,-0.40217 -0.901745,-0.90174 l 0,-13.07529 c 0,-0.49956 0.402178,-0.90174 0.901745,-0.90174 z m -14.6214651,0.65605 6.5054151,0 c 1.998263,0 3.606977,1.38198 3.606977,3.09851 l 0,9.85983 -13.7193689,0 0,-9.85983 c 0,-1.71653 1.6087118,-3.09851 3.6069768,-3.09851 z m 27.9540701,0 6.505415,0 c 1.998263,0 3.606977,1.38198 3.606977,3.09851 l 0,9.85983 -13.719369,0 0,-9.85983 c 0,-1.71653 1.608712,-3.09851 3.606977,-3.09851 z m -24.6438588,1.67791 a 4.3476955,4.4121047 0 0 0 -4.3477455,4.41204 4.3476955,4.4121047 0 0 0 4.3477455,4.4122 4.3476955,4.4121047 0 0 0 4.3477458,-4.4122 4.3476955,4.4121047 0 0 0 -4.3477458,-4.41204 z m 27.9540698,0 a 4.3476955,4.4121047 0 0 0 -4.347745,4.41204 4.3476955,4.4121047 0 0 0 4.347745,4.4122 4.3476955,4.4121047 0 0 0 4.347746,-4.4122 4.3476955,4.4121047 0 0 0 -4.347746,-4.41204 z m -28.0405456,2.7697 a 1.684852,1.7068731 0 0 1 1.6849586,1.70679 1.684852,1.7068731 0 0 1 -1.6849586,1.70698 1.684852,1.7068731 0 0 1 -1.6847822,-1.70698 1.684852,1.7068731 0 0 1 1.6847822,-1.70679 z m 27.9540706,0 a 1.684852,1.7068731 0 0 1 1.684958,1.70679 1.684852,1.7068731 0 0 1 -1.684958,1.70698 1.684852,1.7068731 0 0 1 -1.684782,-1.70698 1.684852,1.7068731 0 0 1 1.684782,-1.70679 z"
       id="path5119"
       inkscape:connector-curvature="0" />
  </g>
</svg>
