<?xml version="1.0" encoding="UTF-8" standalone="no"?>
<!-- Created with Inkscape (http://www.inkscape.org/) -->

<svg
   xmlns:dc="http://purl.org/dc/elements/1.1/"
   xmlns:cc="http://creativecommons.org/ns#"
   xmlns:rdf="http://www.w3.org/1999/02/22-rdf-syntax-ns#"
   xmlns:svg="http://www.w3.org/2000/svg"
   xmlns="http://www.w3.org/2000/svg"
   xmlns:sodipodi="http://sodipodi.sourceforge.net/DTD/sodipodi-0.dtd"
   xmlns:inkscape="http://www.inkscape.org/namespaces/inkscape"
   width="160"
   height="160"
   viewBox="0 0 45.155555 45.155554"
   version="1.1"
   id="svg4491"
   inkscape:version="0.91 r13725"
   sodipodi:docname="brzmienie.svg">
  <defs
     id="defs4485">
    <inkscape:path-effect
       effect="skeletal"
       id="path-effect5185"
       is_visible="true"
       pattern="m -48.683335,120.09375 c 0,-2.76 2.24,-5 5,-5 2.76,0 5,2.24 5,5 0,2.76 -2.24,5 -5,5 -2.76,0 -5,-2.24 -5,-5 z"
       copytype="single_stretched"
       prop_scale="0.26458333"
       scale_y_rel="false"
       spacing="0"
       normal_offset="0"
       tang_offset="0"
       prop_units="false"
       vertical_pattern="false"
       fuse_tolerance="0" />
    <inkscape:path-effect
       effect="skeletal"
       id="path-effect5181"
       is_visible="true"
       pattern="m -48.683334,118.77083 c 0,-2.76 2.24,-5 5,-5 2.76,0 5,2.24 5,5 0,2.76 -2.24,5 -5,5 -2.76,0 -5,-2.24 -5,-5 z"
       copytype="single_stretched"
       prop_scale="0.26458333"
       scale_y_rel="false"
       spacing="0"
       normal_offset="0"
       tang_offset="0"
       prop_units="false"
       vertical_pattern="false"
       fuse_tolerance="0" />
  </defs>
  <sodipodi:namedview
     id="base"
     pagecolor="#ffffff"
     bordercolor="#666666"
     borderopacity="1.0"
     inkscape:pageopacity="0.0"
     inkscape:pageshadow="2"
     inkscape:zoom="3.9196779"
     inkscape:cx="62.11553"
     inkscape:cy="63.45488"
     inkscape:document-units="mm"
     inkscape:current-layer="layer1"
     showgrid="true"
     inkscape:pagecheckerboard="true"
     showguides="false"
     inkscape:window-width="1600"
     inkscape:window-height="824"
     inkscape:window-x="0"
     inkscape:window-y="24"
     inkscape:window-maximized="1"
     inkscape:measure-start="-70,160"
     inkscape:measure-end="230,0"
     units="px">
    <inkscape:grid
       type="xygrid"
       id="grid5095" />
  </sodipodi:namedview>
  <metadata
     id="metadata4488">
    <rdf:RDF>
      <cc:Work
         rdf:about="">
        <dc:format>image/svg+xml</dc:format>
        <dc:type
           rdf:resource="http://purl.org/dc/dcmitype/StillImage" />
        <dc:title></dc:title>
      </cc:Work>
    </rdf:RDF>
  </metadata>
  <g
     inkscape:label="Layer 1"
     inkscape:groupmode="layer"
     id="layer1"
     transform="translate(0,-251.84445)">
    <path
       style="opacity:1;fill:#000000;fill-opacity:1;fill-rule:evenodd;stroke:#ffffff;stroke-width:0.0758544;stroke-linecap:butt;stroke-linejoin:miter;stroke-miterlimit:4;stroke-dasharray:0, 0.83439834999999984;stroke-dashoffset:7.55999994;stroke-opacity:1"
       d="m 22.059634,257.85083 c -0.427587,0 -0.771925,0.4475 -0.771925,1.00336 l 0,8.02692 c 0,0.55587 0.344338,1.00337 0.771925,1.00337 0.427588,0 0.771729,-0.4475 0.771729,-1.00337 l 0,-8.02692 c 0,-0.55586 -0.344141,-1.00336 -0.771729,-1.00336 z m 14.790034,3.51511 c -0.284862,0.015 -0.596785,0.20572 -0.807395,0.52461 l -4.166122,6.30787 c -0.306345,0.46383 -0.27903,1.01798 0.06114,1.24265 0.34017,0.22467 0.860654,0.0322 1.166999,-0.43172 l 4.166121,-6.30787 c 0.306345,-0.46384 0.27903,-1.01798 -0.06114,-1.24265 -0.106304,-0.0702 -0.230121,-0.0997 -0.359604,-0.0929 z m -29.6463041,10e-4 c -0.1293328,-0.007 -0.2530916,0.0224 -0.3592124,0.0925 -0.3395873,0.22428 -0.3663113,0.77822 -0.059963,1.24205 l 4.1571065,6.29435 c 0.306344,0.46384 0.826433,0.6566 1.166019,0.43231 0.339588,-0.22428 0.366312,-0.77822 0.05997,-1.24206 l -4.1571058,-6.29417 c -0.2106128,-0.31888 -0.5222747,-0.50978 -0.806808,-0.525 z m -3.7179372,10.56275 c -1.909978,0 -3.44749969,1.78999 -3.44749969,4.01345 l 0,11.03702 c 0,2.22346 1.53752169,4.01346 3.44749969,4.01346 l 38.1847013,0 c 1.90998,0 3.447501,-1.79 3.447501,-4.01346 l 0,-11.03702 c 0,-2.22346 -1.537521,-4.01345 -3.447501,-4.01345 l -38.1847013,0 z m 1.9352005,1.935 11.9925648,0 0,15.26546 -11.9925648,0 c -1.9099772,0 -3.4476953,-1.79001 -3.4476953,-4.01346 l 0,-7.23854 c 0,-2.22346 1.5377181,-4.01346 3.4476953,-4.01346 z m 13.5636538,0 6.436038,0 0,15.26546 -6.436038,0 0,-15.26546 z m 8.006931,0 12.958697,0 c 1.90998,0 3.447694,1.79 3.447694,4.01346 l 0,7.23854 c 0,2.22345 -1.537714,4.01346 -3.447694,4.01346 l -12.958697,0 0,-15.26546 z m -16.050509,1.52896 c -0.01785,0.002 -0.0343,0.008 -0.04938,0.0161 -0.004,0.002 -0.0076,0.005 -0.01137,0.008 -0.02893,-0.005 -0.05852,-0.008 -0.08897,-0.008 -0.277931,0 -0.501681,0.22374 -0.501681,0.50168 l 0,6.46191 a 2.6300133,1.7517656 0 0 0 -1.6292934,-0.37901 2.6300133,1.7517656 0 0 0 -2.63011,1.75177 2.6300133,1.7517656 0 0 0 2.63011,1.75178 2.6300133,1.7517656 0 0 0 2.5142924,-1.23872 c 0.07287,-0.0871 0.118365,-0.19788 0.118365,-0.32082 l 0,-4.71542 c 0.172961,0.17311 0.387821,0.33356 0.649247,0.45799 l 0.0014,0.001 c 0.501087,0.23919 1.009679,0.33325 1.326127,0.36253 0.333896,0.0309 0.573672,0.004 0.632002,-0.11915 0.06022,-0.12673 -0.08084,-0.33139 -0.38018,-0.54421 -0.333795,-0.2373 -0.689177,-0.38142 -1.142113,-0.6028 l -9.57e-4,-10e-4 c -0.404046,-0.19901 -0.686214,-0.39448 -0.941439,-0.58536 -0.0508,-0.038 -0.09814,-0.0736 -0.144037,-0.10739 l 0,-1.58206 c 0.241692,0.24915 0.564326,0.48078 0.961231,0.65513 0.03544,0.0155 0.07086,0.0304 0.10602,0.0445 0.529668,0.22322 1.059272,0.31456 1.394912,0.34118 0.353094,0.028 0.597737,-0.004 0.648269,-0.12679 0.05181,-0.12531 -0.106424,-0.32147 -0.421531,-0.52736 -0.349208,-0.22816 -0.727899,-0.37912 -1.219325,-0.60475 -0.02948,-0.0143 -0.05896,-0.0286 -0.08877,-0.0429 -0.578445,-0.27781 -0.78668,-0.37462 -1.169547,-0.59673 -0.2464,-0.14295 -0.43823,-0.26767 -0.563217,-0.25104 z m 21.820447,0.90322 c -0.0707,0 -0.134652,0.0429 -0.185584,0.11189 -0.069,0.0509 -0.111898,0.11489 -0.111898,0.18559 l 0,0.0386 c 0,0.018 0.0031,0.0354 0.0082,0.0525 -0.005,0.0364 -0.0082,0.074 -0.0082,0.11308 l 0,1.87679 0,0.0384 0,4.32328 a 2.143141,1.4263912 0 0 0 -1.531112,-0.42877 2.143141,1.4263912 0 0 0 -2.143124,1.42646 2.143141,1.4263912 0 0 0 2.143124,1.42626 2.143141,1.4263912 0 0 0 2.133914,-1.30437 c 0.01901,-0.0662 0.03057,-0.13956 0.03057,-0.21831 l 0,-4.92706 6.423887,0 0,4.08537 a 2.143141,1.4263912 0 0 0 -1.550711,-0.44269 2.143141,1.4263912 0 0 0 -2.143123,1.42645 2.143141,1.4263912 0 0 0 2.143123,1.42628 2.143141,1.4263912 0 0 0 2.132543,-1.28537 c 0.03258,-0.0805 0.05154,-0.17776 0.05154,-0.28298 l 0,-5.22455 0,-0.0384 0,-1.87679 c 0,-0.0391 -0.003,-0.0768 -0.008,-0.11328 0.0051,-0.017 0.0082,-0.0344 0.0082,-0.0523 l 0,-0.0386 c 0,-0.0705 -0.04297,-0.13432 -0.111704,-0.1852 -0.05097,-0.0692 -0.114958,-0.11229 -0.185779,-0.11229 l -0.03861,0 c -0.01793,0 -0.03546,0.003 -0.05252,0.008 -0.03644,-0.005 -0.074,-0.008 -0.113073,-0.008 l -6.687466,0 c -0.03908,0 -0.07661,0.004 -0.113074,0.008 -0.0171,-0.005 -0.03472,-0.008 -0.05272,-0.008 l -0.03841,0 z m 0.335892,0.63338 6.423888,0 0,1.44762 -6.423888,0 0,-1.44762 z"
       id="rect5036"
       inkscape:connector-curvature="0" />
  </g>
</svg>
