<?xml version="1.0" encoding="utf-8"?>
<!-- Generator: Adobe Illustrator 22.0.1, SVG Export Plug-In . SVG Version: 6.00 Build 0)  -->
<svg version="1.1" id="Layer_1" xmlns="http://www.w3.org/2000/svg" xmlns:xlink="http://www.w3.org/1999/xlink" x="0px" y="0px"
	 viewBox="0 0 16 16" style="enable-background:new 0 0 16 16;" xml:space="preserve">
<path d="M8,9.3C7.3,9.3,6.7,8.7,6.7,8S7.3,6.7,8,6.7S9.3,7.3,9.3,8S8.7,9.3,8,9.3z"/>
<g>
	<path class="st0" d="M9.6,11.3c-0.2,0-0.5-0.1-0.6-0.3c-0.2-0.3-0.1-0.8,0.2-1c0.7-0.4,1.1-1.2,1.1-2c0-0.8-0.4-1.6-1.1-2
		C8.9,5.8,8.8,5.4,9,5c0.2-0.3,0.6-0.4,1-0.2c1.1,0.7,1.8,1.9,1.8,3.2c0,1.3-0.7,2.5-1.8,3.2C9.9,11.2,9.7,11.3,9.6,11.3z"/>
</g>
<g>
	<path class="st0" d="M6.4,11.3c-0.1,0-0.3,0-0.4-0.1C4.9,10.5,4.3,9.3,4.3,8c0-1.3,0.7-2.5,1.8-3.2C6.4,4.6,6.8,4.7,7,5
		c0.2,0.3,0.1,0.8-0.2,1C6.1,6.4,5.7,7.2,5.7,8c0,0.8,0.4,1.6,1.1,2c0.3,0.2,0.4,0.6,0.2,1C6.9,11.1,6.6,11.3,6.4,11.3z"/>
</g>
<g>
	<path class="st0" d="M11.5,12.9c-0.2,0-0.4-0.1-0.5-0.3c-0.2-0.3-0.2-0.7,0.1-1c1.1-0.9,1.8-2.3,1.8-3.7c0-1.4-0.6-2.8-1.8-3.7
		c-0.3-0.2-0.3-0.7-0.1-1c0.2-0.3,0.7-0.3,1-0.1c1.4,1.2,2.3,2.9,2.3,4.8c0,1.9-0.8,3.6-2.3,4.8C11.8,12.9,11.7,12.9,11.5,12.9z"/>
</g>
<g>
	<path class="st0" d="M4.5,13c-0.2,0-0.3-0.1-0.4-0.2C2.6,11.6,1.8,9.9,1.8,8c0-1.9,0.8-3.6,2.3-4.8C4.3,2.9,4.8,3,5,3.3
		c0.2,0.3,0.2,0.7-0.1,1C3.8,5.2,3.2,6.5,3.2,8c0,1.5,0.7,2.8,1.8,3.7c0.3,0.2,0.3,0.7,0.1,1C4.9,12.9,4.7,13,4.5,13z"/>
</g>
</svg>
