<?xml version="1.0" encoding="utf-8"?>
<!-- Generator: Adobe Illustrator 16.0.0, SVG Export Plug-In . SVG Version: 6.00 Build 0)  -->
<!DOCTYPE svg PUBLIC "-//W3C//DTD SVG 1.1//EN" "http://www.w3.org/Graphics/SVG/1.1/DTD/svg11.dtd">
<svg version="1.1" id="Layer_1" xmlns="http://www.w3.org/2000/svg" xmlns:xlink="http://www.w3.org/1999/xlink" x="0px" y="0px"
	 width="16px" height="16px" viewBox="0 0 16 16" enable-background="new 0 0 16 16" xml:space="preserve">
<g>
	<path d="M8.026,2.105c3.216,0,5.833,2.617,5.833,5.833s-2.617,5.833-5.833,5.833c-3.217,0-5.832-2.617-5.832-5.833
		S4.81,2.105,8.026,2.105 M8.026,0.688c-4.004,0-7.25,3.246-7.25,7.25s3.245,7.249,7.25,7.249c4.005,0,7.25-3.245,7.25-7.249
		S12.031,0.688,8.026,0.688L8.026,0.688z"/>
</g>
<g>
	<path d="M8.026,6.5c0.794,0,1.438,0.646,1.438,1.438S8.818,9.375,8.026,9.375c-0.793,0-1.438-0.646-1.438-1.438
		S7.233,6.5,8.026,6.5 M8.026,5.083c-1.577,0-2.855,1.278-2.855,2.855c0,1.577,1.278,2.854,2.855,2.854s2.855-1.277,2.855-2.854
		C10.882,6.361,9.604,5.083,8.026,5.083L8.026,5.083z"/>
</g>
<path fill="none" stroke="#000000" stroke-width="0.7087" stroke-miterlimit="10" d="M4.74,5.081
	c0.798-0.918,1.974-1.498,3.286-1.498"/>
<path fill="none" stroke="#000000" stroke-width="0.7087" stroke-miterlimit="10" d="M11.313,10.796
	c-0.797,0.918-1.974,1.498-3.286,1.498"/>
</svg>
