<?xml version="1.0" encoding="utf-8"?>
<!-- Generator: Adobe Illustrator 16.0.0, SVG Export Plug-In . SVG Version: 6.00 Build 0)  -->
<!DOCTYPE svg PUBLIC "-//W3C//DTD SVG 1.1//EN" "http://www.w3.org/Graphics/SVG/1.1/DTD/svg11.dtd">
<svg version="1.1" id="Layer_1" xmlns="http://www.w3.org/2000/svg" xmlns:xlink="http://www.w3.org/1999/xlink" x="0px" y="0px"
	 width="16px" height="16px" viewBox="0 0 16 16" enable-background="new 0 0 16 16" xml:space="preserve">
<g>
	<g>
		<path d="M7.938,6.948c0.532,0,0.966,0.435,0.966,0.968c0,0.532-0.434,0.967-0.966,0.967c-0.533,0-0.967-0.435-0.967-0.967
			C6.972,7.383,7.405,6.948,7.938,6.948 M7.938,5.815c-1.16,0-2.102,0.941-2.102,2.102c0,1.16,0.94,2.102,2.102,2.102
			c1.159,0,2.101-0.941,2.101-2.102C10.039,6.756,9.098,5.815,7.938,5.815L7.938,5.815z"/>
	</g>
	<g>
		<path d="M7.938,4.235c2.029,0,3.681,1.652,3.681,3.682c0,2.029-1.65,3.682-3.681,3.682c-2.029,0-3.68-1.652-3.68-3.682
			C4.259,5.887,5.908,4.235,7.938,4.235 M7.938,2.818c-2.815,0-5.098,2.283-5.098,5.099s2.282,5.099,5.098,5.099
			s5.099-2.282,5.099-5.099S10.754,2.818,7.938,2.818L7.938,2.818z"/>
	</g>
	<g>
		<g>
			<polygon points="9.318,12.788 6.548,12.788 6.548,14.916 9.318,14.916 			"/>
		</g>
		<g>
			<polygon points="9.318,0.959 6.548,0.959 6.548,3.086 9.318,3.086 			"/>
		</g>
		<g>
			<polygon points="3.08,6.552 0.953,6.552 0.954,9.323 3.081,9.323 			"/>
		</g>
		<g>
			<polygon points="15.098,6.552 12.781,6.552 12.783,9.323 15.099,9.323 			"/>
		</g>
		<g>
			<polygon points="3.523,10.39 2.019,11.894 3.978,13.853 5.482,12.349 			"/>
		</g>
		<g>
			<polygon points="11.887,2.025 10.383,3.529 12.342,5.488 13.847,3.984 			"/>
		</g>
		<g>
			<polygon points="3.978,2.024 2.019,3.983 3.523,5.487 5.481,3.528 			"/>
		</g>
		<g>
			<polygon points="12.342,10.389 10.383,12.348 11.887,13.852 13.846,11.893 			"/>
		</g>
	</g>
</g>
</svg>
