<?xml version="1.0" encoding="utf-8"?>
<!-- Generator: Adobe Illustrator 16.0.0, SVG Export Plug-In . SVG Version: 6.00 Build 0)  -->
<!DOCTYPE svg PUBLIC "-//W3C//DTD SVG 1.1//EN" "http://www.w3.org/Graphics/SVG/1.1/DTD/svg11.dtd">
<svg version="1.1" id="Layer_1" xmlns="http://www.w3.org/2000/svg" xmlns:xlink="http://www.w3.org/1999/xlink" x="0px" y="0px"
	 width="16px" height="16px" viewBox="0 0 16 16" enable-background="new 0 0 16 16" xml:space="preserve">
<g>
	<g>
		<path d="M8.026,2.104c3.215,0,5.832,2.617,5.832,5.833c0,3.216-2.617,5.831-5.832,5.831c-3.216,0-5.832-2.615-5.832-5.831
			C2.194,4.721,4.811,2.104,8.026,2.104 M8.026,0.688c-4.004,0-7.25,3.246-7.25,7.25c0,4.004,3.245,7.25,7.25,7.25
			c4.003,0,7.249-3.246,7.249-7.25C15.275,3.932,12.029,0.688,8.026,0.688L8.026,0.688z"/>
	</g>
	<path d="M6.517,6.428l-2.07,5.089l5.09-2.069l2.069-5.091L6.517,6.428z M8.026,8.775c-0.462,0-0.837-0.375-0.837-0.836
		c0-0.463,0.375-0.838,0.837-0.838c0.461,0,0.836,0.375,0.836,0.838C8.862,8.4,8.487,8.775,8.026,8.775z"/>
</g>
</svg>
