<?xml version="1.0" encoding="utf-8"?>
<!-- Generator: Adobe Illustrator 21.0.2, SVG Export Plug-In . SVG Version: 6.00 Build 0)  -->
<svg version="1.1" id="Layer_1" xmlns="http://www.w3.org/2000/svg" xmlns:xlink="http://www.w3.org/1999/xlink" x="0px" y="0px"
	 viewBox="0 0 16 16" style="enable-background:new 0 0 16 16;" xml:space="preserve">
<style type="text/css">
	.st0{stroke:#000000;stroke-width:1.4173;stroke-miterlimit:10;}
	.st1{fill:none;stroke:#000000;stroke-width:1.4173;stroke-miterlimit:10;}
</style>
<g>
	<g>
		<path class="st0" d="M13.9,13.1c0,0.3-0.2,0.5-0.5,0.5H2.6c-0.3,0-0.5-0.2-0.5-0.5V5.4c0-0.3,0.2-0.5,0.5-0.5h10.8
			c0.3,0,0.5,0.2,0.5,0.5V13.1z"/>
	</g>
	<g>
		<path d="M2.7,2.8c0-0.3,0.2-0.5,0.5-0.5h3.9c0.3,0,0.5,0.2,0.5,0.5v1.6c0,0.3-0.2,0.5-0.5,0.5H3.2c-0.3,0-0.5-0.2-0.5-0.5V2.8z"/>
		<path class="st1" d="M2.7,2.8c0-0.3,0.2-0.5,0.5-0.5h3.9c0.3,0,0.5,0.2,0.5,0.5v1.6c0,0.3-0.2,0.5-0.5,0.5H3.2
			c-0.3,0-0.5-0.2-0.5-0.5V2.8z"/>
	</g>
</g>
</svg>
