<?xml version="1.0" encoding="utf-8"?>
<!-- Generator: Adobe Illustrator 21.0.2, SVG Export Plug-In . SVG Version: 6.00 Build 0)  -->
<svg version="1.1" id="Layer_1" xmlns="http://www.w3.org/2000/svg" xmlns:xlink="http://www.w3.org/1999/xlink" x="0px" y="0px"
	 viewBox="0 0 16 16" style="enable-background:new 0 0 16 16;" xml:space="preserve">
<style type="text/css">
	.st0{display:none;}
	.st1{display:inline;}
	.st2{fill:#FFFFFF;}
	.st3{display:inline;fill:#FFFFFF;}
	.st4{display:none;fill:#FFFFFF;}
	.st5{display:inline;fill:none;stroke:#FFFFFF;stroke-width:1.4173;stroke-miterlimit:10;}
	.st6{display:inline;fill:none;stroke:#FFFFFF;stroke-width:1.4173;stroke-linejoin:round;stroke-miterlimit:10;}
	.st7{fill:none;stroke:#FFFFFF;stroke-width:1.4173;stroke-miterlimit:10;}
	.st8{display:inline;fill:none;stroke:#000000;stroke-width:0.5669;stroke-miterlimit:10;}
	.st9{display:inline;fill:none;stroke:#000000;stroke-width:2.2677;stroke-linecap:round;stroke-miterlimit:10;}
	
		.st10{display:none;fill:none;stroke:#010101;stroke-width:1.8546;stroke-linecap:round;stroke-linejoin:round;stroke-miterlimit:10;}
	.st11{display:inline;fill:#010101;stroke:#010101;stroke-width:1.3704;stroke-miterlimit:10;}
	.st12{display:inline;fill:none;stroke:#010101;stroke-width:0.8504;stroke-miterlimit:10;}
	.st13{display:inline;fill:none;stroke:#010101;stroke-width:1.8546;stroke-miterlimit:10;}
	.st14{fill:none;stroke:#000000;stroke-width:0.5669;stroke-miterlimit:10;}
</style>
<g class="st0">
	<g class="st1">
		<path class="st2" d="M3.9,3.2L11,7.9l-7.2,4.7V3.2 M2.5,0.5v14.8l11.1-7.4L2.5,0.5L2.5,0.5z"/>
	</g>
</g>
<g class="st0">
	<path class="st3" d="M8,2.1c3.2,0,5.8,2.6,5.8,5.8c0,3.2-2.6,5.8-5.8,5.8c-3.2,0-5.8-2.6-5.8-5.8C2.2,4.7,4.8,2.1,8,2.1 M8,0.7
		c-4,0-7.3,3.2-7.3,7.3c0,4,3.2,7.3,7.3,7.3c4,0,7.2-3.2,7.2-7.3C15.3,3.9,12,0.7,8,0.7L8,0.7z"/>
</g>
<path class="st4" d="M6.5,6.4l-2.1,5.1l5.1-2.1l2.1-5.1L6.5,6.4z M8,8.8c-0.5,0-0.8-0.4-0.8-0.8c0-0.5,0.4-0.8,0.8-0.8
	c0.5,0,0.8,0.4,0.8,0.8C8.9,8.4,8.5,8.8,8,8.8z"/>
<g class="st0">
	<circle class="st5" cx="8.1" cy="11.8" r="2.4"/>
	<polyline class="st6" points="10.5,11.8 10.5,1.6 14.5,5.7 	"/>
	<line class="st6" x1="1.6" y1="1.9" x2="7.7" y2="1.9"/>
	<line class="st6" x1="1.6" y1="4.3" x2="7.7" y2="4.3"/>
	<line class="st6" x1="1.6" y1="6.7" x2="7.7" y2="6.7"/>
</g>
<g class="st0">
	<circle class="st5" cx="12.3" cy="10.3" r="2.4"/>
	<circle class="st5" cx="3.8" cy="12.3" r="2.4"/>
	<polyline class="st6" points="6.2,12.3 6.2,3.1 14.7,1.1 14.7,10.3 	"/>
</g>
<g class="st0">
	<g class="st1">
		<path class="st2" d="M7.9,6.9c0.5,0,1,0.4,1,1c0,0.5-0.4,1-1,1c-0.5,0-1-0.4-1-1C7,7.4,7.4,6.9,7.9,6.9 M7.9,5.8
			c-1.2,0-2.1,0.9-2.1,2.1c0,1.2,0.9,2.1,2.1,2.1C9.1,10,10,9.1,10,7.9C10,6.8,9.1,5.8,7.9,5.8L7.9,5.8z"/>
	</g>
	<g class="st1">
		<path class="st2" d="M7.9,4.2c2,0,3.7,1.7,3.7,3.7c0,2-1.7,3.7-3.7,3.7c-2,0-3.7-1.7-3.7-3.7C4.3,5.9,5.9,4.2,7.9,4.2 M7.9,2.8
			c-2.8,0-5.1,2.3-5.1,5.1S5.1,13,7.9,13c2.8,0,5.1-2.3,5.1-5.1S10.8,2.8,7.9,2.8L7.9,2.8z"/>
	</g>
	<g class="st1">
		<g>
			<polygon class="st2" points="9.3,12.8 6.5,12.8 6.5,14.9 9.3,14.9 			"/>
		</g>
		<g>
			<polygon class="st2" points="9.3,1 6.5,1 6.5,3.1 9.3,3.1 			"/>
		</g>
		<g>
			<polygon class="st2" points="3.1,6.6 1,6.6 1,9.3 3.1,9.3 			"/>
		</g>
		<g>
			<polygon class="st2" points="15.1,6.6 12.8,6.6 12.8,9.3 15.1,9.3 			"/>
		</g>
		<g>
			<polygon class="st2" points="3.5,10.4 2,11.9 4,13.9 5.5,12.3 			"/>
		</g>
		<g>
			<polygon class="st2" points="11.9,2 10.4,3.5 12.3,5.5 13.8,4 			"/>
		</g>
		<g>
			<polygon class="st2" points="4,2 2,4 3.5,5.5 5.5,3.5 			"/>
		</g>
		<g>
			<polygon class="st2" points="12.3,10.4 10.4,12.3 11.9,13.9 13.8,11.9 			"/>
		</g>
	</g>
</g>
<g class="st0">
	<g class="st1">
		<path class="st7" d="M13.9,13.1c0,0.3-0.2,0.5-0.5,0.5H2.6c-0.3,0-0.5-0.2-0.5-0.5V5.4c0-0.3,0.2-0.5,0.5-0.5h10.8
			c0.3,0,0.5,0.2,0.5,0.5V13.1z"/>
	</g>
	<rect x="2.7" y="2.3" class="st5" width="4.9" height="2.6"/>
</g>
<path class="st4" d="M1.8,4.1c0,0,4.2-3.8,8.2-1.4c4,2.4,5.2,5.5,3.5,7.7c-2-3.2-3.1-4.7-7.3-6c0,0,6.6,4.2,7.8,9.1
	c-0.2,1-1.2,0.3-1.2,0.3L11.7,12c0,0-2,1.6-4.5-0.5C3.1,7.9,6.4,4,1.8,4.1z"/>
<g class="st0">
	<path class="st3" d="M8,3.5l1.2,2.4l0.3,0.7l0.7,0.1L13,7L11,8.9l-0.5,0.5l0.1,0.7l0.5,2.7l-2.4-1.3L8,11.2l-0.7,0.3L5,12.9
		l0.5-2.7l0.1-0.7L5,8.9L3.1,7l2.7-0.4l0.7-0.1l0.3-0.7L8,3.5 M8,0.8c-0.2,0-0.3,0.1-0.4,0.4l-2,4.1L1,5.9C0.7,6,0.5,6.1,0.5,6.3
		c0,0.1,0.1,0.3,0.2,0.4L4,10l-0.8,4.5c0,0.1,0,0.1,0,0.2c0,0.1,0,0.2,0.1,0.3c0.1,0.1,0.2,0.1,0.3,0.1c0.1,0,0.2,0,0.4-0.1l4-2.1
		l4,2.1c0.1,0.1,0.2,0.1,0.4,0.1c0.1,0,0.2,0,0.3-0.1c0.1-0.1,0.1-0.2,0.1-0.3c0-0.1,0-0.1,0-0.2L12,10l3.3-3.2
		c0.2-0.2,0.2-0.3,0.2-0.4c0-0.2-0.2-0.4-0.5-0.4l-4.5-0.7l-2-4.1C8.4,0.9,8.2,0.8,8,0.8L8,0.8z"/>
</g>
<g class="st0">
	<circle class="st8" cx="8" cy="8" r="6.6"/>
	<circle class="st1" cx="8" cy="8" r="0.8"/>
	<circle class="st8" cx="8" cy="8" r="2.1"/>
	<path class="st1" d="M5.7,8c0-1.2,1-2.3,2.3-2.3c0.3,0,0.6,0.1,0.9,0.2l1.8-4C9.9,1.6,9,1.4,8,1.4C4.4,1.4,1.4,4.4,1.4,8
		c0,0.8,0.2,1.6,0.4,2.4l4-1.6C5.8,8.6,5.7,8.3,5.7,8z"/>
	<path class="st1" d="M14.1,5.6l-4,1.6c0.1,0.3,0.2,0.5,0.2,0.8c0,1.2-1,2.3-2.3,2.3c-0.3,0-0.6-0.1-0.9-0.2L5.3,14
		C6.1,14.4,7,14.6,8,14.6c3.6,0,6.6-2.9,6.6-6.6C14.6,7.2,14.4,6.4,14.1,5.6z"/>
</g>
<g class="st0">
	<rect x="2" y="1.9" class="st1" width="5" height="5"/>
	<rect x="9.1" y="9" class="st1" width="5" height="5"/>
	<rect x="2" y="9" class="st1" width="5" height="5"/>
	<rect x="9.1" y="1.9" class="st1" width="5" height="5"/>
</g>
<g class="st0">
	<circle class="st1" cx="6.1" cy="6.2" r="5.3"/>
	<line class="st9" x1="9.1" y1="8.8" x2="14.5" y2="14.2"/>
</g>
<polyline class="st10" points="4.8,1.6 11.2,7.9 4.8,14.3 "/>
<polyline class="st10" points="11.2,14.3 4.8,7.9 11.2,1.6 "/>
<g class="st0">
	<rect x="2.1" y="3.3" class="st11" width="2.3" height="2.3"/>
	<line class="st12" x1="7.3" y1="3.1" x2="13.9" y2="3.1"/>
	<line class="st12" x1="7.3" y1="4.8" x2="13.9" y2="4.8"/>
	<line class="st12" x1="7.3" y1="6.4" x2="13.9" y2="6.4"/>
	<line class="st12" x1="7.3" y1="9.5" x2="13.9" y2="9.5"/>
	<line class="st12" x1="7.3" y1="11.1" x2="13.9" y2="11.1"/>
	<line class="st12" x1="7.3" y1="12.8" x2="13.9" y2="12.8"/>
	<rect x="2.1" y="9.7" class="st11" width="2.3" height="2.3"/>
</g>
<g class="st0">
	<rect x="2.8" y="2.7" class="st11" width="3.8" height="3.8"/>
	<rect x="2.8" y="9.3" class="st11" width="3.8" height="3.8"/>
	<rect x="9.5" y="2.7" class="st11" width="3.8" height="3.8"/>
	<rect x="9.5" y="9.3" class="st11" width="3.8" height="3.8"/>
</g>
<g class="st0">
	<line class="st13" x1="1.7" y1="3.4" x2="14.3" y2="3.4"/>
	<line class="st13" x1="1.7" y1="7.9" x2="14.3" y2="7.9"/>
	<line class="st13" x1="1.7" y1="12.5" x2="14.3" y2="12.5"/>
</g>
<g>
	<path d="M3.4,14.5c-0.1,0.1-0.3,0.1-0.4,0L1.5,13c-0.1-0.1-0.1-0.3,0-0.4l5.3-6.2c0.1-0.1,0.3-0.1,0.4,0l2.4,2.4
		c0.1,0.1,0.1,0.3,0,0.4L3.4,14.5z"/>
	<path class="st14" d="M3.4,14.5c-0.1,0.1-0.3,0.1-0.4,0L1.5,13c-0.1-0.1-0.1-0.3,0-0.4l5.3-6.2c0.1-0.1,0.3-0.1,0.4,0l2.4,2.4
		c0.1,0.1,0.1,0.3,0,0.4L3.4,14.5z"/>
</g>
<g>
	<path d="M11,8c0.1,0.1,0.3,0.2,0.5,0.2c0,0,1.5-0.3,2.1-1c1.3-1.3,1.3-3.5,0-4.9s-3.5-1.3-4.9,0c-0.7,0.7-1,2.1-1,2.1
		c0,0.2,0,0.4,0.2,0.5L11,8z"/>
	<path class="st14" d="M11,8c0.1,0.1,0.3,0.2,0.5,0.2c0,0,1.5-0.3,2.1-1c1.3-1.3,1.3-3.5,0-4.9s-3.5-1.3-4.9,0c-0.7,0.7-1,2.1-1,2.1
		c0,0.2,0,0.4,0.2,0.5L11,8z"/>
</g>
</svg>
