<?xml version="1.0" encoding="utf-8"?>
<!-- Generator: Adobe Illustrator 21.0.2, SVG Export Plug-In . SVG Version: 6.00 Build 0)  -->
<svg version="1.1" id="Layer_1" xmlns="http://www.w3.org/2000/svg" xmlns:xlink="http://www.w3.org/1999/xlink" x="0px" y="0px"
	 viewBox="0 0 16 16" style="enable-background:new 0 0 16 16;" xml:space="preserve">
<g>
	<path d="M12,13.5c0,0.3-0.2,0.5-0.5,0.5h-2C9.2,14,9,13.8,9,13.5v-11C9,2.2,9.2,2,9.5,2h2C11.8,2,12,2.2,12,2.5V13.5z"/>
</g>
<g>
	<path d="M7,13.5C7,13.8,6.8,14,6.5,14h-2C4.2,14,4,13.8,4,13.5v-11C4,2.2,4.2,2,4.5,2h2C6.8,2,7,2.2,7,2.5V13.5z"/>
</g>
</svg>
