<?xml version="1.0" encoding="utf-8"?>
<!-- Generator: Adobe Illustrator 21.1.0, SVG Export Plug-In . SVG Version: 6.00 Build 0)  -->
<svg version="1.1" id="Layer_1" xmlns="http://www.w3.org/2000/svg" xmlns:xlink="http://www.w3.org/1999/xlink" x="0px" y="0px"
	 viewBox="0 0 16 16" style="enable-background:new 0 0 16 16;" xml:space="preserve">
<g>
	<path d="M6.2,13.8c0,0.1-0.1,0.2-0.2,0.2H3.6c-0.1,0-0.2-0.1-0.2-0.2V2.2C3.4,2.1,3.5,2,3.6,2h2.4c0.1,0,0.2,0.1,0.2,0.2V13.8z"/>
</g>
<g>
	<path d="M12.6,13.8c0,0.1-0.1,0.2-0.2,0.2h-2.4c-0.1,0-0.2-0.1-0.2-0.2V2.2C9.9,2.1,9.9,2,10.1,2h2.4c0.1,0,0.2,0.1,0.2,0.2V13.8z"
		/>
</g>
</svg>
