<?xml version="1.0" encoding="utf-8"?>
<svg version="1.1" xmlns="http://www.w3.org/2000/svg" xmlns:xlink="http://www.w3.org/1999/xlink" x="0px" y="0px"
	 viewBox="0 0 16 16" xml:space="preserve">
<path d="M15.3,13.4l-3.5-3.5C12.2,9,12.5,8,12.5,7c0-3.1-2.5-5.6-5.6-5.6C3.8,1.4,1.3,3.9,1.3,7c0,3.1,2.5,5.6,5.6,5.6
	c1.2,0,2.4-0.4,3.3-1.1l3.5,3.5c0.2,0.2,0.5,0.3,0.8,0.3s0.6-0.1,0.8-0.3C15.7,14.6,15.7,13.8,15.3,13.4z M3.5,7
	c0-1.9,1.5-3.4,3.4-3.4c1.9,0,3.4,1.5,3.4,3.4c0,0.7-0.2,1.4-0.6,1.9C9.6,9,9.5,9,9.4,9.1C9.3,9.2,9.2,9.3,9.1,9.5
	c-0.6,0.5-1.4,0.9-2.2,0.9C5,10.4,3.5,8.9,3.5,7z"/>
</svg>
