<?xml version="1.0" encoding="utf-8"?>
<!-- Generator: Adobe Illustrator 19.1.0, SVG Export Plug-In . SVG Version: 6.00 Build 0)  -->
<svg version="1.1" xmlns="http://www.w3.org/2000/svg" xmlns:xlink="http://www.w3.org/1999/xlink" x="0px" y="0px" width="24px"
	 height="24px" viewBox="0 0 24 24" enable-background="new 0 0 24 24" xml:space="preserve">
<g id="Bounding_Boxes">
	<g id="ui_x5F_spec_x5F_header_copy_3">
	</g>
	<path fill="none" d="M0,0h24v24H0V0z"/>
</g>
<g id="Outline">
	<g id="ui_x5F_spec_x5F_header">
	</g>
	<g>
		<path d="M17,2H7C5.9,2,5,2.9,5,4v16c0,1.1,0.9,1.99,2,1.99L17,22c1.1,0,2-0.9,2-2V4C19,2.9,18.1,2,17,2z M7,20V4h10l0,16H7z"/>
		<path d="M12,9c1.1,0,2-0.9,2-2c0-1.1-0.9-2-2-2c-1.11,0-2,0.9-2,2C10,8.1,10.89,9,12,9z"/>
		<path d="M12,11c-2.21,0-4,1.79-4,4s1.79,4,4,4s4-1.79,4-4S14.21,11,12,11z M12,17c-1.1,0-2-0.9-2-2s0.9-2,2-2s2,0.9,2,2
			S13.1,17,12,17z"/>
	</g>
</g>
</svg>
