<?xml version="1.0" encoding="utf-8"?>
<!-- Generator: Adobe Illustrator 22.0.1, SVG Export Plug-In . SVG Version: 6.00 Build 0)  -->
<svg version="1.1" id="Layer_1" xmlns="http://www.w3.org/2000/svg" xmlns:xlink="http://www.w3.org/1999/xlink" x="0px" y="0px"
	 viewBox="0 0 16 16" style="enable-background:new 0 0 16 16;" xml:space="preserve">
<path d="M8,0.7C4,0.7,0.7,4,0.7,8c0,4,3.3,7.3,7.3,7.3S15.3,12,15.3,8C15.3,4,12,0.7,8,0.7z M8,6.6c0.8,0,1.4,0.6,1.4,1.4
	S8.8,9.4,8,9.4S6.6,8.8,6.6,8S7.2,6.6,8,6.6z M13.5,5.8L10.6,7c-0.3-0.7-0.8-1.3-1.5-1.6l1.3-2.8C11.8,3.2,12.9,4.4,13.5,5.8z
	 M2.5,10.1L5.4,9c0.3,0.7,0.8,1.3,1.5,1.6l-1.3,2.8C4.2,12.7,3.1,11.6,2.5,10.1z"/>
</svg>
