<?xml version="1.0" encoding="utf-8"?>
<!-- Generator: Adobe Illustrator 21.0.2, SVG Export Plug-In . SVG Version: 6.00 Build 0)  -->
<svg version="1.1" id="Layer_1" xmlns="http://www.w3.org/2000/svg" xmlns:xlink="http://www.w3.org/1999/xlink" x="0px" y="0px"
	 viewBox="0 0 16 16" style="enable-background:new 0 0 16 16;" xml:space="preserve">
<path d="M15.3,9.2V6.7l-2-0.4C13.1,6,13,5.8,12.9,5.5L14,3.8L12.3,2l-1.7,1.1C10.3,3,10.1,2.9,9.8,2.8l-0.4-2H6.9l-0.4,2
	C6.2,2.9,6,3,5.7,3.2L4,2L2.2,3.8l1.2,1.7C3.3,5.8,3.2,6,3.1,6.3L1,6.7v2.5l2,0.4c0.1,0.3,0.2,0.5,0.3,0.8l-1.2,1.7L4,13.8l1.7-1.2
	C6,12.8,6.2,12.9,6.5,13l0.4,2h2.5l0.4-2c0.3-0.1,0.5-0.2,0.8-0.3l1.7,1.2l1.7-1.7l-1.2-1.7c0.1-0.3,0.2-0.5,0.3-0.8L15.3,9.2z
	 M8.1,9.9c-1.1,0-2-0.9-2-2s0.9-2,2-2s2,0.9,2,2S9.2,9.9,8.1,9.9z"/>
</svg>
