<?xml version="1.0" encoding="utf-8"?>
<svg version="1.1" xmlns="http://www.w3.org/2000/svg" xmlns:xlink="http://www.w3.org/1999/xlink" x="0px" y="0px"
	 viewBox="0 0 16 16" xml:space="preserve">
<g>
	<path d="M7.4,6.2C7.2,6,6.8,6,6.6,6.2l-5.3,6.2c-0.1,0.1-0.2,0.2-0.2,0.4c0,0.2,0.1,0.3,0.2,0.4l1.5,1.5c0.1,0.1,0.2,0.2,0.4,0.2
		c0.1,0,0.3-0.1,0.4-0.1l6.2-5.3C9.9,9.3,10,9.2,10,9c0-0.2-0.1-0.3-0.2-0.4L7.4,6.2z"/>
	<path d="M13.8,2.1C13.1,1.4,12.2,1,11.2,1c-1,0-1.9,0.4-2.7,1.1C7.7,2.9,7.4,4.3,7.4,4.4c0,0.2,0,0.5,0.3,0.7l3.1,3.1
		c0.1,0.1,0.4,0.3,0.7,0.3c0,0,0,0,0,0c0.1,0,1.6-0.3,2.2-1.1C15.2,6,15.2,3.6,13.8,2.1z"/>
</g>
</svg>
