<?xml version="1.0" encoding="utf-8"?>
<!-- Generator: Adobe Illustrator 16.0.0, SVG Export Plug-In . SVG Version: 6.00 Build 0)  -->
<!DOCTYPE svg PUBLIC "-//W3C//DTD SVG 1.1//EN" "http://www.w3.org/Graphics/SVG/1.1/DTD/svg11.dtd">
<svg version="1.1" id="Layer_1" xmlns="http://www.w3.org/2000/svg" xmlns:xlink="http://www.w3.org/1999/xlink" x="0px" y="0px"
	 width="16px" height="16px" viewBox="0 0 16 16" enable-background="new 0 0 16 16" xml:space="preserve">
<path id="spotify" d="M7.94,1.887c-3.389,0-6.16,2.772-6.16,6.162c0,3.391,2.771,6.161,6.16,6.161c3.388,0,6.16-2.771,6.16-6.161
	C14.1,4.659,11.357,1.887,7.94,1.887z M10.773,10.789c-0.123,0.186-0.34,0.246-0.522,0.123c-1.449-0.893-3.267-1.078-5.422-0.584
	c-0.215,0.061-0.399-0.094-0.461-0.279C4.306,9.834,4.458,9.65,4.645,9.588c2.34-0.523,4.375-0.309,5.975,0.678
	C10.836,10.359,10.866,10.605,10.773,10.789z M11.514,9.094c-0.154,0.219-0.433,0.309-0.646,0.156
	c-1.664-1.018-4.19-1.327-6.13-0.709C4.49,8.604,4.213,8.48,4.151,8.232C4.089,7.986,4.213,7.708,4.458,7.648
	c2.25-0.678,5.021-0.34,6.933,0.832C11.574,8.572,11.667,8.878,11.514,9.094z M11.574,7.371C9.604,6.198,6.308,6.075,4.43,6.661
	C4.121,6.754,3.812,6.569,3.72,6.292C3.628,5.983,3.812,5.676,4.089,5.583C6.276,4.937,9.88,5.06,12.16,6.415
	c0.277,0.154,0.369,0.523,0.215,0.801C12.223,7.431,11.852,7.523,11.574,7.371z"/>
</svg>
