<?xml version="1.0" encoding="utf-8"?>
<!-- Generator: Adobe Illustrator 16.0.0, SVG Export Plug-In . SVG Version: 6.00 Build 0)  -->
<!DOCTYPE svg PUBLIC "-//W3C//DTD SVG 1.1//EN" "http://www.w3.org/Graphics/SVG/1.1/DTD/svg11.dtd">
<svg version="1.1" id="Layer_1" xmlns="http://www.w3.org/2000/svg" xmlns:xlink="http://www.w3.org/1999/xlink" x="0px" y="0px"
	 width="16px" height="16px" viewBox="0 0 16 16" enable-background="new 0 0 16 16" xml:space="preserve">
<g>
	<path d="M8.024,3.464l1.198,2.422l0.33,0.668l0.736,0.106l2.672,0.389l-1.936,1.888l-0.533,0.521l0.127,0.734l0.457,2.661
		l-2.393-1.257l-0.659-0.348l-0.658,0.348l-2.394,1.258l0.458-2.662l0.126-0.736L5.021,8.935L3.081,7.05L5.76,6.66l0.735-0.106
		l0.33-0.668L8.024,3.464 M8.025,0.79c-0.18,0-0.327,0.122-0.44,0.369L5.558,5.258L1.036,5.915C0.7,5.97,0.532,6.106,0.532,6.329
		c0,0.127,0.074,0.271,0.225,0.434L4.036,9.95l-0.774,4.504c-0.013,0.084-0.019,0.144-0.019,0.182c0,0.125,0.032,0.23,0.096,0.318
		c0.063,0.088,0.158,0.131,0.283,0.131c0.107,0,0.229-0.037,0.36-0.108l4.044-2.125l4.044,2.125
		c0.127,0.071,0.246,0.108,0.359,0.108c0.12,0,0.213-0.043,0.275-0.131s0.096-0.193,0.096-0.318c0-0.079-0.006-0.141-0.012-0.182
		L12.017,9.95l3.271-3.188c0.154-0.158,0.232-0.3,0.232-0.434c0-0.222-0.167-0.359-0.503-0.414l-4.522-0.657L8.469,1.159
		C8.352,0.912,8.206,0.79,8.025,0.79L8.025,0.79z"/>
</g>
</svg>
