<?xml version="1.0" encoding="utf-8"?>
<!-- Generator: Adobe Illustrator 21.0.2, SVG Export Plug-In . SVG Version: 6.00 Build 0)  -->
<svg version="1.1" id="Layer_1" xmlns="http://www.w3.org/2000/svg" xmlns:xlink="http://www.w3.org/1999/xlink" x="0px" y="0px"
	 viewBox="0 0 141.7 141.7" style="enable-background:new 0 0 141.7 141.7;" xml:space="preserve">
<style type="text/css">
	.st0{fill:#FFFFFF;}
</style>
<g>
	<path class="st0" d="M3.9,102.9V40h10.8v62.9H3.9z"/>
	<path class="st0" d="M20.6,102.9V57h10.5v4.8c1.8-3.8,5-5.9,9.4-5.9c3.2,0,6.1,1,8.5,3.1l-1.5,9.6c-2.3-1.6-4.9-2.4-7.8-2.4
		c-2.4,0-4.4,0.8-6.1,2.5c-1.7,1.7-2.5,4.4-2.5,8.5v25.7H20.6z"/>
	<path class="st0" d="M62.9,48.8c-1.2,1.2-2.6,1.8-4.4,1.8c-1.7,0-3.2-0.6-4.4-1.8c-1.2-1.2-1.8-2.7-1.8-4.4s0.6-3.2,1.8-4.4
		c1.2-1.2,2.7-1.8,4.4-1.8s3.2,0.6,4.4,1.8c1.2,1.2,1.8,2.6,1.8,4.4S64.1,47.6,62.9,48.8z M53.2,102.9V57h10.5v45.9H53.2z"/>
	<path class="st0" d="M84.9,103.9c-3.7,0-7.2-0.7-10.5-2.1c-3.2-1.4-5.8-3.3-7.4-5.8l7.2-6.1c3.2,3.2,6.8,4.9,10.7,4.9
		c5,0,7.5-1.5,7.5-4.4c0-1-0.4-1.9-1.3-2.8c-0.9-0.8-1.8-1.5-2.8-1.9c-1-0.4-2.6-1.1-4.9-2c-5.3-1.7-9.1-3.7-11.5-6
		s-3.6-5.3-3.6-8.9c0-4,1.5-7.2,4.7-9.4c3-2.2,7-3.3,11.7-3.3c7,0,12.4,2.3,16.5,7.1l-7.3,6c-2.7-2.5-5.8-3.8-9.2-3.8
		c-4.1-0.1-6.2,1.1-6.2,3.6c0,1.2,0.8,2.3,2.3,3.2c1.5,0.9,3.7,1.8,6.7,2.8c5,1.7,8.7,3.6,11.3,6c2.5,2.3,3.8,5.5,3.8,9.5
		c0,4.3-1.6,7.8-4.8,10.1C94.5,102.8,90.2,103.9,84.9,103.9z"/>
</g>
<polygon class="st0" points="121,74.6 110.6,64.5 110.6,97 121,87 "/>
<polygon class="st0" points="121,64.5 121,69.4 132.8,80.7 121,92.2 121,97 137.9,80.7 "/>
</svg>
