<?xml version="1.0" encoding="iso-8859-1"?>
<!-- Generator: Adobe Illustrator 19.0.0, SVG Export Plug-In . SVG Version: 6.00 Build 0)  -->
<svg version="1.1" id="Layer_1" xmlns="http://www.w3.org/2000/svg" xmlns:xlink="http://www.w3.org/1999/xlink" x="0px" y="0px"
	 viewBox="0 0 305 305" style="enable-background:new 0 0 305 305;" xml:space="preserve">
<g id="XMLID_462_">
	<path id="XMLID_463_" d="M109.588,230c1.059,0,2.135-0.066,3.201-0.198c14.049-1.754,24.607-14.558,23.571-28.561
		c-0.001-0.024-0.002-0.047-0.003-0.071c0.025-0.144,0.039-0.292,0.039-0.443v-76.194l54.993-10.237v56.219
		c-2.942-0.722-6.067-0.897-9.167-0.508c-14.084,1.741-24.666,14.585-23.59,28.628c0.976,12.947,11.5,22.71,24.481,22.71
		c1.067,0,2.152-0.068,3.224-0.202c14.062-1.753,24.643-14.596,23.587-28.623c-0.002-0.024-0.004-0.048-0.006-0.072
		c0.02-0.124,0.029-0.251,0.029-0.381V77.994l0.023-0.288c0.075-0.905-0.363-1.771-1.119-2.276
		c-0.571-0.382-1.274-0.501-1.934-0.357c-0.012,0.002-0.024,0.005-0.036,0.007l-86.983,14.849c-1.201,0.205-2.079,1.246-2.079,2.464
		v86.793c-2.95-0.729-6.074-0.908-9.164-0.521c-14.09,1.738-24.665,14.583-23.574,28.631C86.072,220.24,96.607,230.001,109.588,230z
		"/>
	<path id="XMLID_464_" d="M152.5,305c84.089,0,152.5-68.411,152.5-152.5S236.589,0,152.5,0S0,68.411,0,152.5S68.411,305,152.5,305z
		 M152.5,34.997c64.791,0,117.503,52.711,117.503,117.503c0,64.792-52.712,117.504-117.503,117.504S34.997,217.292,34.997,152.5
		C34.997,87.709,87.709,34.997,152.5,34.997z"/>
</g>
<g>
</g>
<g>
</g>
<g>
</g>
<g>
</g>
<g>
</g>
<g>
</g>
<g>
</g>
<g>
</g>
<g>
</g>
<g>
</g>
<g>
</g>
<g>
</g>
<g>
</g>
<g>
</g>
<g>
</g>
</svg>
