<?xml version="1.0" encoding="utf-8"?>
<!-- Generator: Adobe Illustrator 22.0.1, SVG Export Plug-In . SVG Version: 6.00 Build 0)  -->
<svg version="1.1" id="Layer_1" xmlns="http://www.w3.org/2000/svg" xmlns:xlink="http://www.w3.org/1999/xlink" x="0px" y="0px"
	 viewBox="0 0 16 16" style="enable-background:new 0 0 16 16;" xml:space="preserve">
<path d="M12.9,4.3c0-1.4-3.1-1.8-4.9-1.8S3.1,2.9,3.1,4.3c0,0,0,0,0,0v5.2h0c0,0,0,0,0,0v2.6c0,1.4,3.1,1.8,4.9,1.8s4.9-0.4,4.9-1.8
	L12.9,4.3L12.9,4.3z M11.9,9.5c-0.1,0.2-1.4,0.8-3.9,0.8c-2.5,0-3.8-0.6-3.9-0.8V8.1C5.1,8.5,6.8,8.7,8,8.7c1.2,0,2.9-0.2,3.9-0.6
	L11.9,9.5z M8,3.5c2.5,0,3.8,0.6,3.9,0.8C11.8,4.5,10.5,5.1,8,5.1c-2.5,0-3.8-0.6-3.9-0.7v0C4.2,4.1,5.5,3.5,8,3.5z M4.1,5.5
	C5.1,5.9,6.8,6.1,8,6.1c1.2,0,2.9-0.2,3.9-0.6l0,1.4C11.8,7.1,10.5,7.7,8,7.7c-2.5,0-3.8-0.6-3.9-0.8V5.5z M8,12.9
	c-2.5,0-3.8-0.6-3.9-0.8v-1.5c1.1,0.5,2.8,0.6,3.9,0.6c1.2,0,2.9-0.2,3.9-0.6l0,1.4C11.8,12.3,10.5,12.9,8,12.9z"/>
</svg>
