<?xml version="1.0" encoding="iso-8859-1"?>
<!-- Generator: Adobe Illustrator 19.0.0, SVG Export Plug-In . SVG Version: 6.00 Build 0)  -->
<svg version="1.1" id="Capa_1" xmlns="http://www.w3.org/2000/svg" xmlns:xlink="http://www.w3.org/1999/xlink" x="0px" y="0px"
	 viewBox="0 0 512 512" style="enable-background:new 0 0 512 512;" xml:space="preserve">
<g>
	<g>
		<path d="M506.24,371.7l-96-80c-4.768-4-11.424-4.8-17.024-2.208c-5.632,2.656-9.216,8.288-9.216,14.496v48h-26.784
			c-22.208,0-42.496-11.264-54.272-30.08l-103.616-165.76c-23.52-37.664-64.096-60.16-108.544-60.16H0v64h90.784
			c22.208,0,42.496,11.264,54.272,30.08l103.616,165.76c23.552,37.664,64.128,60.16,108.544,60.16H384v48
			c0,6.208,3.584,11.84,9.216,14.496c2.144,0.992,4.48,1.504,6.784,1.504c3.68,0,7.328-1.248,10.24-3.712l96-80
			c3.68-3.04,5.76-7.552,5.76-12.288C512,379.252,509.92,374.74,506.24,371.7z"/>
	</g>
</g>
<g>
	<g>
		<path d="M506.24,115.7l-96-80c-4.768-3.968-11.424-4.8-17.024-2.176C387.584,36.116,384,41.78,384,47.988v48h-26.784
			c-44.448,0-85.024,22.496-108.544,60.16l-5.792,9.28l37.728,60.384l22.336-35.744c11.776-18.816,32.064-30.08,54.272-30.08H384v48
			c0,6.208,3.584,11.872,9.216,14.496c2.144,0.992,4.48,1.504,6.784,1.504c3.68,0,7.328-1.28,10.24-3.712l96-80
			c3.68-3.04,5.76-7.552,5.76-12.288C512,123.252,509.92,118.74,506.24,115.7z"/>
	</g>
</g>
<g>
	<g>
		<path d="M167.392,286.164l-22.304,35.744c-11.776,18.816-32.096,30.08-54.304,30.08H0v64h90.784
			c44.416,0,84.992-22.496,108.544-60.16l5.792-9.28L167.392,286.164z"/>
	</g>
</g>
<g>
</g>
<g>
</g>
<g>
</g>
<g>
</g>
<g>
</g>
<g>
</g>
<g>
</g>
<g>
</g>
<g>
</g>
<g>
</g>
<g>
</g>
<g>
</g>
<g>
</g>
<g>
</g>
<g>
</g>
</svg>
